<svg viewBox="0 0 400 300" xmlns="http://www.w3.org/2000/svg"><path d="m217.61 194.72s13.89.56 19.71 0 13.32-1.88 17.45-.94 11.27 1.61 15.77.43a82.78 82.78 0 0 1 14.08-2.12c4.69-.37 9.95-2.63 15-2.44s8.63-1.5 11.45-2.06 10.51-1.32 10.51-1.32l-6-1.87-.19-2.15s9.39.64 8.64 4-15.58 5.26-20.09 6.39-6-1.13-10.13-.38-15.31 5.2-20.28 3.75-9.76 3.38-16.51 1.88-6.95-1.88-12.39-.94-23.84 2.28-29.47 1.23 2.45-3.46 2.45-3.46z" fill="#231f20"/><path d="m221.68 199.09a40.67 40.67 0 0 1 -6.6-.39c-1.1-.21-2.36-.56-2.41-1.47-.07-1.32 3-2.44 4.79-3h.17c.14 0 13.92.56 19.64 0 1.33-.13 2.75-.29 4.19-.47 5-.59 10.16-1.2 13.42-.46 3.7.84 10.89 1.66 15.53.44a84 84 0 0 1 14.17-2.14 41.71 41.71 0 0 0 6.1-1.13 33.9 33.9 0 0 1 9-1.31 26 26 0 0 0 8.72-1.37c.93-.27 1.8-.52 2.62-.68 1.83-.37 5.63-.81 8.14-1.07l-3.69-1.16a.51.51 0 0 1 -.35-.43l-.19-2.14a.5.5 0 0 1 .15-.4.49.49 0 0 1 .39-.15c.71.05 7 .54 8.69 2.84a2.15 2.15 0 0 1 .4 1.79c-.61 2.72-7.68 4.28-16.17 5.89-1.76.33-3.29.62-4.29.87a10.81 10.81 0 0 1 -5.7-.1 10 10 0 0 0 -4.46-.27c-1.16.21-2.89.72-4.9 1.31-5.31 1.56-11.92 3.51-15.6 2.43-2.23-.64-4.41.05-6.93.84-2.76.88-5.89 1.86-9.56 1.05l-2.36-.54c-4.52-1-5.21-1.19-9.84-.39a184.62 184.62 0 0 1 -23.07 1.61zm-8-1.9a3.37 3.37 0 0 0 1.59.52c5.59 1 24.08-.33 29.29-1.23 4.83-.83 5.65-.64 10.23.41l2.35.53c3.41.76 6.28-.15 9.05-1 2.57-.81 5-1.57 7.5-.85 3.41 1 10.14-1 15.05-2.43 2-.6 3.79-1.11 5-1.33a10.94 10.94 0 0 1 4.86.27 9.86 9.86 0 0 0 5.24.11c1-.26 2.57-.55 4.35-.89 5.19-1 14.86-2.82 15.37-5.11a1.13 1.13 0 0 0 -.22-1c-1.11-1.48-5.27-2.18-7.38-2.39l.11 1.22 5.69 1.78a.5.5 0 0 1 -.1 1c-.08 0-7.71.76-10.47 1.31-.77.15-1.62.4-2.53.66a27.26 27.26 0 0 1 -9 1.41 33.26 33.26 0 0 0 -8.71 1.28 43 43 0 0 1 -6.25 1.16 82.46 82.46 0 0 0 -14 2.11c-4.82 1.26-12.21.43-16-.43-3.1-.7-8.17-.1-13.08.48-1.45.17-2.88.34-4.21.47-5.55.53-18.52.05-19.7 0-2 .62-3.9 1.55-4 2z" fill="#231f20"/><path d="m171.24 192.59s-9.57 2.63-16 2.26-12.58-.49-16.52 0-17.64-1.54-22.15-2.29-10.32-3.53-15-3.17-13.52 0-16-1.14 2.06-3 2.06-3-5.58-.09-5.23 1.88 11 4.51 18.94 5.35 11 1.27 17.17 3.24 26.61 2.62 33.93 1.94 12.67-1.94 17.6-1.1a92.2 92.2 0 0 0 11.12 1l-11.12-6" fill="#231f20"/><path d="m144.66 198.45c-9.22 0-21.61-.77-26.22-2.24-6.07-1.93-9.14-2.36-17.08-3.21-6.52-.7-18.9-3.11-19.37-5.76a1.38 1.38 0 0 1 .32-1.18c1.13-1.32 5-1.3 5.41-1.29a.5.5 0 0 1 .19 1c-1.29.53-2.48 1.37-2.48 1.74 0 .07.13.2.43.34 2.2 1 10.71 1.48 15.71 1.1 3.05-.23 6.48.8 9.8 1.79a43.58 43.58 0 0 0 5.33 1.39c4.84.81 18.24 2.79 22 2.29 3.52-.47 9.11-.49 16.62 0 5.2.31 12.68-1.45 15-2l-.48-.26a.51.51 0 0 1 -.2-.68.49.49 0 0 1 .67-.2l11.13 6a.5.5 0 0 1 .24.57.5.5 0 0 1 -.49.37 92.78 92.78 0 0 1 -11.2-1c-3.43-.59-7-.14-11.55.43-1.86.23-3.79.47-5.91.67s-4.72.13-7.87.13zm-56.78-9.07a81.06 81.06 0 0 0 13.59 2.62c8 .86 11.12 1.3 17.27 3.26 6 1.9 26.23 2.62 33.73 1.92 2.11-.19 4-.43 5.89-.67 4.44-.55 8.27-1 11.84-.42a83.85 83.85 0 0 0 8.88.9l-7.5-4a.56.56 0 0 1 -.2.12c-.4.1-9.73 2.65-16.12 2.27-7.45-.44-13-.43-16.42 0-4.7.62-22.12-2.26-22.3-2.29a48.68 48.68 0 0 1 -5.46-1.42c-3.23-1-6.57-2-9.44-1.75a68.76 68.76 0 0 1 -13.76-.54zm-2.34-3.49a4.58 4.58 0 0 0 -2.47.82.38.38 0 0 0 -.09.35c.06.35.72.78 1.82 1.25a1.13 1.13 0 0 1 -.37-.85 2.3 2.3 0 0 1 1.11-1.57z" fill="#231f20"/><path d="m247.26 164.09c-.2.66-.41 1.33-.64 2a13.29 13.29 0 0 1 -2.82 5 14.76 14.76 0 0 1 -4.73 3c-1.29.57-2.6 1.1-3.92 1.58a57.46 57.46 0 0 1 -5.73 1.77c1.89 2.59 1 6.38-1 8.88a16.42 16.42 0 0 1 -2.93 2.78c-1.46 1.13-3 2.13-4.53 3.23a2.1 2.1 0 0 0 -1 1.32c-.07.66.47 1.21.94 1.68 2.81 2.84 4.65 6.89 4 10.84s-4.1 7.52-8.1 7.44c.77 10.13 1.81 20.31 3.27 30.36a25.77 25.77 0 0 0 12.16 18.8 6.24 6.24 0 0 1 2.1 1.89c-18.52 0-37 .37-55.61.37-2.83.1-5.67.23-8.5.32 3.6-.6 5.66-4.33 7.19-7.65q3.33-7.14 6.64-14.28a6 6 0 0 0 .71-2.41 7.1 7.1 0 0 0 -.65-2.36c-2.64-7.16.65-15 3.89-21.91-4.93-2.23-10-4.59-13.47-8.78s-4.58-10.77-1.11-14.92c-5.43.06-10.26-4.52-11.28-9.75a9.92 9.92 0 0 1 0-4.27 21.12 21.12 0 0 1 -2.5-.33 19.22 19.22 0 0 1 -11.4-6.61 16 16 0 0 1 -2.44-4.32 14.67 14.67 0 0 1 0-10.73l2.69-8.07c2.17-6 6.8-10.86 12.17-14.28s11.5-5.49 17.66-7.11c11.65-3.09 23.89-4.7 35.79-2.75s23.46 7.72 30.75 17.32a20.93 20.93 0 0 1 4.2 8.64c.94 4.46-.46 8.99-1.8 13.31z" fill="#68e1fd"/><path d="m170.25 265.87a.5.5 0 0 1 -.5-.45.5.5 0 0 1 .42-.54c3.26-.55 5.2-3.87 6.82-7.37q3.33-7.14 6.64-14.28a5.69 5.69 0 0 0 .66-2.2 5.48 5.48 0 0 0 -.49-1.85l-.13-.33c-2.6-7.07.34-14.65 3.69-21.84-4.61-2.09-9.73-4.5-13.19-8.71-3.19-3.91-4.74-10.25-1.69-14.78a12.59 12.59 0 0 1 -10.8-10.11 10.35 10.35 0 0 1 -.07-3.92 19.08 19.08 0 0 1 -2-.29 19.62 19.62 0 0 1 -11.7-6.79 16.48 16.48 0 0 1 -2.51-4.41 15.23 15.23 0 0 1 0-11.1l2.68-8c2-5.59 6.42-10.75 12.37-14.54s12.63-5.81 17.8-7.17c13.58-3.61 25.36-4.51 36-2.76 12.89 2.1 24.22 8.48 31.07 17.51a21.25 21.25 0 0 1 4.29 8.85c.85 4.67-.61 9.38-1.89 13.53-.2.66-.42 1.34-.65 2a13.84 13.84 0 0 1 -2.93 5.24 15.35 15.35 0 0 1 -4.89 3.09c-1.32.58-2.65 1.12-4 1.59-1.67.61-3.39 1.15-5.11 1.61 1.53 2.78.52 6.48-1.4 8.88a16.73 16.73 0 0 1 -3 2.87c-.83.65-1.72 1.26-2.58 1.85-.66.46-1.31.91-2 1.38-.37.28-.77.6-.81 1s.42.9.79 1.28c3.21 3.24 4.77 7.45 4.18 11.27-.65 4.21-4.19 7.62-8 7.85.83 10.86 1.89 20.61 3.22 29.8a25.29 25.29 0 0 0 11.92 18.44 6.81 6.81 0 0 1 2.26 2 .49.49 0 0 1 0 .52.48.48 0 0 1 -.44.27c-9.25 0-18.66.09-27.76.18s-18.56.19-27.85.19l-3.56.14-4.92.18zm3.2-73.31a.49.49 0 0 1 .45.29.47.47 0 0 1 -.07.53c-3.34 4-2.05 10.4 1.12 14.28 3.42 4.18 8.66 6.55 13.29 8.64a.53.53 0 0 1 .26.29.46.46 0 0 1 0 .38c-3.34 7.14-6.4 14.68-3.87 21.53l.12.32a6.26 6.26 0 0 1 .56 2.2 6.48 6.48 0 0 1 -.75 2.63l-6.65 14.28c-1.26 2.74-2.73 5.38-4.87 6.84l2.13-.08 3.58-.14c9.31 0 18.74-.09 27.86-.19 8.75-.08 17.79-.17 26.7-.18a6.29 6.29 0 0 0 -1.28-1 26.23 26.23 0 0 1 -12.4-19.16c-1.36-9.36-2.44-19.3-3.28-30.39a.49.49 0 0 1 .14-.38.48.48 0 0 1 .37-.16c3.61.1 7-3.08 7.6-7 .54-3.5-.92-7.39-3.91-10.41a2.73 2.73 0 0 1 -1.08-2.08 2.59 2.59 0 0 1 1.21-1.67c.65-.48 1.31-.94 2-1.4.85-.59 1.73-1.19 2.54-1.83a15.82 15.82 0 0 0 2.78-2.7c1.82-2.28 2.75-5.86 1-8.28a.47.47 0 0 1 -.07-.46.5.5 0 0 1 .35-.31c1.91-.49 3.82-1.08 5.68-1.76 1.28-.46 2.58-1 3.89-1.57a14.13 14.13 0 0 0 4.57-2.87 13 13 0 0 0 2.71-4.86c.23-.66.43-1.32.63-2 1.26-4 2.68-8.62 1.87-13.05a20.23 20.23 0 0 0 -4.11-8.43c-6.7-8.82-17.79-15.06-30.43-17.13-10.5-1.72-22.14-.82-35.58 2.74-5.11 1.35-11.72 3.36-17.52 7.05s-10 8.66-12 14l-2.69 8.06a14.27 14.27 0 0 0 0 10.39 15.33 15.33 0 0 0 2.36 4.19 18.61 18.61 0 0 0 11.1 6.43 20.81 20.81 0 0 0 2.45.32.47.47 0 0 1 .36.2.51.51 0 0 1 .09.41 9.42 9.42 0 0 0 0 4.06c1 5.18 5.79 9.35 10.69 9.35z" fill="#231f20"/><path d="m163.61 166.12c2.86 3.38 8 5.16 11.92 3.22-2.43 2.86-5 6.85-3.05 10.07 1 1.66 2.91 2.49 4.55 3.51s3.25 2.7 3 4.61c-.2 1.3-1.2 2.3-1.71 3.51-1.3 3.07 1 6.56 3.69 8.47s6 3 8.47 5.27a15.3 15.3 0 0 1 3.57 5.48c2.7 6.58 2.42 14.07.59 20.93s-5.11 13.24-8.37 19.55l-6.05 11.71q14.63.6 29.25.54l-1.84-1.36c-1.28-12.95 6.63-25.85 3.83-38.56-1.35-6.1-5.14-11.83-4.51-18.06a5.6 5.6 0 0 1 .87-2.71c1.36-1.88 4.17-2 5.91-3.52a4.66 4.66 0 0 0 .38-6.37c-.72-.81-1.76-1.4-2.12-2.43-.48-1.36.53-2.84 1.74-3.63s2.67-1.18 3.85-2a6.09 6.09 0 0 0 1.92-7.21c-.87-1.94-2.82-4-1.68-5.82a4.58 4.58 0 0 1 2.7-1.53 23 23 0 0 0 13-9.9 17.36 17.36 0 0 0 1-16.05 22 22 0 0 0 -6.3-7.38 28.93 28.93 0 0 0 -14.17-6.46c-10.05-1.28-19.57 4.17-29.41 6.57-6.14 1.5-12.57 1.57-16.42 7-3.29 4.67-8.07 12.83-6.53 18.87a9.1 9.1 0 0 0 1.92 3.68z" fill="#68e1fd"/><path d="m206.6 263.49c-8.78 0-17.66-.18-26.43-.54a.49.49 0 0 1 -.41-.25.48.48 0 0 1 0-.48l6-11.71c3.2-6.2 6.51-12.6 8.34-19.45 1.41-5.32 2.46-13.21-.57-20.61a14.73 14.73 0 0 0 -3.45-5.31 21.68 21.68 0 0 0 -4.86-3.14 33.68 33.68 0 0 1 -3.56-2.08c-2.86-2-5.29-5.69-3.86-9.08a10 10 0 0 1 .77-1.4 5.4 5.4 0 0 0 .9-2c.3-2-2-3.67-2.73-4.11l-1-.62a9.54 9.54 0 0 1 -3.69-3.06c-1.46-2.42-.79-5.53 2-9.26-4 1-8.4-1.12-10.81-4a9.63 9.63 0 0 1 -2-3.83c-1.61-6.33 3.45-14.8 6.61-19.28s8-5.47 13-6.46c1.21-.24 2.47-.49 3.69-.78 3.06-.75 6.15-1.82 9.14-2.85 6.61-2.28 13.44-4.63 20.45-3.74a29.48 29.48 0 0 1 14.4 6.55 22.16 22.16 0 0 1 6.44 7.55 17.74 17.74 0 0 1 -1 16.52 23.62 23.62 0 0 1 -13.32 10.13h-.1a4.07 4.07 0 0 0 -2.33 1.29c-.69 1.09.08 2.41.89 3.81.29.51.59 1 .83 1.54a6.59 6.59 0 0 1 -2.09 7.81 11.3 11.3 0 0 1 -2.13 1.15 12.25 12.25 0 0 0 -1.73.9c-1.06.69-1.93 1.95-1.55 3a3.86 3.86 0 0 0 1.21 1.47 10.16 10.16 0 0 1 .82.78 5.17 5.17 0 0 1 -.43 7.08 9.73 9.73 0 0 1 -2.84 1.56 6.45 6.45 0 0 0 -3 1.89 5 5 0 0 0 -.78 2.46c-.39 3.87 1 7.51 2.4 11.36a49.46 49.46 0 0 1 2.1 6.55c1.53 6.92-.1 14-1.67 20.82-1.33 5.77-2.7 11.73-2.17 17.57l1.66 1.22a.52.52 0 0 1 .18.56.51.51 0 0 1 -.47.35zm-25.6-1.49c8.94.36 18 .53 26.93.51l-.63-.46a.52.52 0 0 1 -.2-.35c-.6-6.08.81-12.19 2.17-18.11 1.55-6.73 3.15-13.68 1.67-20.39a49.27 49.27 0 0 0 -2.06-6.41c-1.41-3.79-2.87-7.7-2.46-11.81a6 6 0 0 1 1-3 7.28 7.28 0 0 1 3.42-2.23 8.71 8.71 0 0 0 2.56-1.38 4.17 4.17 0 0 0 .34-5.66 8 8 0 0 0 -.73-.7 4.71 4.71 0 0 1 -1.49-1.89c-.58-1.65.6-3.35 1.94-4.22a14.44 14.44 0 0 1 1.87-1 10.66 10.66 0 0 0 1.95-1.05 5.55 5.55 0 0 0 1.77-6.59c-.22-.47-.49-.94-.78-1.45-.89-1.52-1.89-3.25-.87-4.84a4.83 4.83 0 0 1 2.87-1.72h.1a22.59 22.59 0 0 0 12.76-9.68 16.74 16.74 0 0 0 1-15.57 21.35 21.35 0 0 0 -6.16-7.21 28.56 28.56 0 0 0 -13.97-6.29c-6.78-.86-13.5 1.46-20 3.7-3 1-6.13 2.11-9.23 2.87-1.25.3-2.51.55-3.74.79-4.85.95-9.43 1.84-12.39 6s-8 12.53-6.46 18.46a8.6 8.6 0 0 0 1.82 3.48c2.55 3 7.48 5 11.32 3.09a.48.48 0 0 1 .61.14.5.5 0 0 1 0 .63c-3.38 4-4.39 7.18-3 9.49a8.7 8.7 0 0 0 3.33 2.72c.36.21.71.41 1.06.63 1.08.68 3.57 2.54 3.19 5.11a6.36 6.36 0 0 1 -1 2.36 9.39 9.39 0 0 0 -.7 1.26c-1.16 2.75.89 6 3.51 7.87a31.45 31.45 0 0 0 3.46 2 23.29 23.29 0 0 1 5.08 3.3 15.66 15.66 0 0 1 3.68 5.66c3.14 7.66 2.07 15.78.61 21.25-1.85 7-5.18 13.41-8.41 19.65z" fill="#231f20"/><path d="m172.77 159.06c.5 2.4 2.3 4.28 4 6l8.84 8.94a7.22 7.22 0 0 1 2.21 3.32c.43 2-.95 4-1.46 6-.8 3.11.52 6.4 2.36 9s4.2 4.89 5.91 7.61c3.24 5.13 3.88 11.46 3.93 17.53a108.77 108.77 0 0 1 -7.18 39.69 66.26 66.26 0 0 0 10.29-1.57l1.87-21.34c.61-6.93 1.18-14.13-1.3-20.63-.9-2.38-2.2-4.6-3-7s-1.06-5.18.1-7.45c1.5-2.92 5.23-4.92 5-8.21s-4.3-5.71-3.43-8.85a6.23 6.23 0 0 1 2-2.66l4.87-4.59c1.87-1.76 3.83-3.68 4.35-6.19.44-2.17-.28-4.38-.69-6.55s-.42-4.69 1.11-6.28c1.21-1.26 3.09-1.65 4.36-2.83 2.14-2 1.75-5.73-.15-7.95s-4.84-3.26-7.7-3.88c-4.26-.93-9.34-.92-12.27 2.31-1.48 1.63-2.79 4.18-5 3.83-1.11-.18-1.91-1.11-2.8-1.81-7.44-5.88-17.74 6.41-16.22 13.56z" fill="#68e1fd"/><path d="m191.41 257.71a.51.51 0 0 1 -.4-.2.49.49 0 0 1 -.01-.51 109 109 0 0 0 7.14-39.51c0-5.26-.52-12-3.85-17.27a40.09 40.09 0 0 0 -3.19-4.15c-.92-1.1-1.88-2.23-2.71-3.44-1.62-2.32-3.36-5.85-2.44-9.45a17.08 17.08 0 0 1 .71-2 6.6 6.6 0 0 0 .75-3.74 6.79 6.79 0 0 0 -2.08-3.07l-8.84-8.95c-1.61-1.63-3.61-3.65-4.16-6.27-.95-4.48 2.52-11.07 7.42-14.12 3.45-2.14 6.88-2.1 9.67.1.22.17.42.35.63.53a4.27 4.27 0 0 0 1.94 1.18c1.39.22 2.43-1.09 3.52-2.48.33-.41.65-.83 1-1.19 3.45-3.81 9.47-3.19 12.75-2.47 2.39.52 5.81 1.5 8 4 2 2.35 2.52 6.38.11 8.64a9.51 9.51 0 0 1 -2.22 1.42 8 8 0 0 0 -2.13 1.39c-1.15 1.21-1.48 3.17-1 5.84.09.45.18.9.28 1.34a13.17 13.17 0 0 1 .41 5.41c-.57 2.75-2.74 4.81-4.49 6.45l-4.88 4.59a5.8 5.8 0 0 0 -1.82 2.44c-.41 1.49.54 2.89 1.54 4.38a8.74 8.74 0 0 1 1.91 4.31c.12 2.25-1.39 3.92-2.86 5.54a14.21 14.21 0 0 0 -2.24 2.92c-1.21 2.36-.71 5.14-.07 7.06a35.57 35.57 0 0 0 1.63 3.87c.47 1 1 2.06 1.37 3.13 2.57 6.74 1.91 14.23 1.33 20.85l-1.88 21.35a.5.5 0 0 1 -.38.44 67.16 67.16 0 0 1 -10.36 1.58zm-18.16-98.71c.5 2.33 2.38 4.24 3.9 5.78l8.84 8.94a7.6 7.6 0 0 1 2.35 3.57 7.47 7.47 0 0 1 -.8 4.32 15.22 15.22 0 0 0 -.67 1.89c-.83 3.23.79 6.48 2.29 8.63.81 1.17 1.75 2.29 2.66 3.37a38.34 38.34 0 0 1 3.26 4.26c3.47 5.5 4 12.4 4 17.79a108.48 108.48 0 0 1 -6.93 39.14 66 66 0 0 0 9.07-1.41l1.84-21c.58-6.51 1.22-13.88-1.26-20.4-.4-1-.88-2.06-1.35-3.06a37.91 37.91 0 0 1 -1.67-4c-.7-2.1-1.24-5.16.13-7.83a15.13 15.13 0 0 1 2.39-3.15c1.39-1.53 2.7-3 2.6-4.81a8.08 8.08 0 0 0 -1.74-3.8c-1.09-1.61-2.21-3.27-1.67-5.21a6.53 6.53 0 0 1 2.1-2.89l4.87-4.59c2-1.91 3.73-3.67 4.2-5.94a12.11 12.11 0 0 0 -.41-5c-.1-.45-.19-.91-.28-1.36-.57-3-.15-5.27 1.24-6.72a8.67 8.67 0 0 1 2.39-1.59 8.44 8.44 0 0 0 2-1.26c2-1.84 1.48-5.3-.19-7.26-2-2.31-5.18-3.23-7.42-3.72-3.07-.66-8.68-1.27-11.8 2.17-.32.35-.63.74-.95 1.14-1.16 1.49-2.48 3.17-4.46 2.84a4.83 4.83 0 0 1 -2.43-1.41l-.6-.5c-3.28-2.59-6.75-1.13-8.52 0-4.58 2.85-7.84 8.95-7 13.06z" fill="#231f20"/><path d="m247.26 164.09c-.2.66-.41 1.33-.64 2a37 37 0 0 1 -11.83-.1 76.2 76.2 0 0 1 -11.37-2.53 10.4 10.4 0 0 0 -3.55-.68 10.77 10.77 0 0 0 -3.48 1 61.33 61.33 0 0 1 -51.84-2.35c-3.48 2.31-7 4.64-11 5.83a16.5 16.5 0 0 1 -7.64.48 14.67 14.67 0 0 1 0-10.73l2.69-8.07c2.17-6 6.8-10.86 12.17-14.28s11.5-5.49 17.66-7.11c11.65-3.09 23.89-4.7 35.79-2.75s23.46 7.72 30.75 17.32a20.93 20.93 0 0 1 4.2 8.64c.83 4.48-.57 9.01-1.91 13.33z" fill="#231f20"/><path d="m193 169a61.12 61.12 0 0 1 -28.42-6.95c-3.23 2.14-6.88 4.53-10.93 5.73a16.91 16.91 0 0 1 -7.87.49.49.49 0 0 1 -.38-.31 15.23 15.23 0 0 1 0-11.1l2.68-8c2-5.59 6.42-10.75 12.37-14.54s12.63-5.81 17.8-7.17c13.58-3.61 25.36-4.51 36-2.76 12.89 2.1 24.22 8.48 31.07 17.51a21.25 21.25 0 0 1 4.29 8.85c.85 4.67-.61 9.38-1.89 13.53-.2.66-.42 1.34-.65 2a.49.49 0 0 1 -.38.33 37.12 37.12 0 0 1 -12-.09 77.42 77.42 0 0 1 -11.45-2.55h-.1a10 10 0 0 0 -3.28-.63 9.61 9.61 0 0 0 -3.1.93l-.21.08a60.83 60.83 0 0 1 -23.55 4.65zm-28.45-8a.46.46 0 0 1 .23.06 60.53 60.53 0 0 0 51.42 2.33l.2-.09a10.66 10.66 0 0 1 3.44-1 10.53 10.53 0 0 1 3.63.67h.1a76.27 76.27 0 0 0 11.29 2.52 36.76 36.76 0 0 0 11.38.15c.19-.56.37-1.13.54-1.69 1.26-4 2.68-8.62 1.87-13.05a20.23 20.23 0 0 0 -4.11-8.43c-6.7-8.82-17.79-15.06-30.43-17.13-10.5-1.72-22.14-.82-35.58 2.74-5.11 1.35-11.72 3.36-17.52 7.05s-10 8.66-12 14l-2.69 8.06a14.24 14.24 0 0 0 -.11 10.13 16.1 16.1 0 0 0 7.13-.52c4-1.19 7.67-3.62 10.9-5.77a.57.57 0 0 1 .31-.03z" fill="#231f20"/><path d="m129.15 39.46c-9.11 2.9-16.83 11.27-16.91 20.84a16.21 16.21 0 0 0 -17 21.44c-7.04 1.75-14.24 5.16-17.73 11.55s-1.13 16.09 5.87 18.06a18.2 18.2 0 0 0 15.56 28c3.36 13.25 17.76 22.66 31.24 20.42 9.3 8.4 26.12 5.86 32.51-4.92 1.1 4.46 5.9 6.88 10.33 8.06 14.3 3.81 27.11-.06 39.58-7 8 10.95 28.71 7.76 39.48 3.6 10-3.87 18.57-13.34 18.27-24.08 6.39 4.27 15 5.66 21.91 2.31s11.26-12 8.66-19.19a18.62 18.62 0 0 0 .82-35.35c-.88-7.61-2.5-15.53-7.41-21.42s-14-8.93-20.5-4.85a24 24 0 0 0 -41.74-7.67c-6.66-10.36-22.72-13-32.37-5.37.53-3.82-3.21-6.83-6.74-8.37a36.85 36.85 0 0 0 -35.45 3.7 5.28 5.28 0 0 0 -1.53 2.47c-8.45-3.39-18-5.04-26.85-2.23z" fill="#68e1fd"/><path d="m143.89 165.28a20.85 20.85 0 0 1 -13.87-5c-13.6 2.13-27.88-7.16-31.46-20.45a18.7 18.7 0 0 1 -15.94-28.22 10.5 10.5 0 0 1 -6.06-6 15 15 0 0 1 .51-12.54c2.94-5.42 9-9.45 17.55-11.66a16.72 16.72 0 0 1 17.13-21.64c.35-9 7.52-17.67 17.25-20.76 7.78-2.47 17-1.76 26.71 2a4.88 4.88 0 0 1 1.53-2.2 37.33 37.33 0 0 1 35.94-3.75c3.42 1.49 6.89 4.27 7.08 7.8a23.69 23.69 0 0 1 31.87 5.56 24.47 24.47 0 0 1 42 7.76c6.85-3.82 15.94-.33 20.6 5.28 5.06 6.07 6.64 14.19 7.5 21.38a19.12 19.12 0 0 1 -.65 36c2.22 7.06-1.85 15.8-9.08 19.31-6.41 3.1-14.8 2.36-21.63-1.84-.19 11.36-9.65 20.17-18.59 23.63a59.56 59.56 0 0 1 -21 3.9c-8.66-.06-15.16-2.59-18.84-7.32-14.72 8.07-26.94 10.17-39.57 6.81-3.2-.86-8.58-2.92-10.35-7.38a21.66 21.66 0 0 1 -14.94 9 24.68 24.68 0 0 1 -3.69.33zm-13.71-6a.46.46 0 0 1 .33.13 21.74 21.74 0 0 0 31.76-4.8.46.46 0 0 1 .5-.24.49.49 0 0 1 .41.37c1.15 4.69 6.74 6.84 10 7.7 12.47 3.32 24.56 1.19 39.21-6.92a.49.49 0 0 1 .64.14c7.67 10.48 27.93 7.66 38.9 3.42 12.65-4.88 18.17-15.65 18-23.59a.51.51 0 0 1 .25-.46.49.49 0 0 1 .52 0c6.68 4.44 15.08 5.33 21.42 2.27 7-3.37 10.82-11.88 8.41-18.57a.48.48 0 0 1 0-.39.5.5 0 0 1 .3-.25 18.12 18.12 0 0 0 .8-34.4.51.51 0 0 1 -.33-.42c-.83-7.12-2.34-15.21-7.31-21.16-4.52-5.44-13.4-8.8-19.85-4.75a.49.49 0 0 1 -.44 0 .48.48 0 0 1 -.3-.32 23.48 23.48 0 0 0 -40.87-7.5.5.5 0 0 1 -.81 0 22.58 22.58 0 0 0 -31.72-5.23.48.48 0 0 1 -.56 0 .5.5 0 0 1 -.24-.5c.48-3.5-3-6.34-6.45-7.84a36.29 36.29 0 0 0 -35 3.65 4.43 4.43 0 0 0 -1.36 2.2.5.5 0 0 1 -.26.29.55.55 0 0 1 -.4 0c-6.73-2.71-16.8-5.3-26.49-2.22-9.53 3-16.5 11.59-16.57 20.36a.48.48 0 0 1 -.17.37.47.47 0 0 1 -.38.12 15.72 15.72 0 0 0 -16.38 20.84.51.51 0 0 1 0 .4.45.45 0 0 1 -.32.25c-5.99 1.47-13.85 4.63-17.42 11.3a13.94 13.94 0 0 0 -.47 11.67 9.4 9.4 0 0 0 6 5.67.49.49 0 0 1 .33.3.48.48 0 0 1 0 .45 17.71 17.71 0 0 0 15.14 27.23.5.5 0 0 1 .49.38c3.31 13.08 17.35 22.26 30.67 20.05z" fill="#231f20"/><path d="m229.22 177.93a1.9 1.9 0 0 1 .9.72c1.43 2.1-.37 6-1.7 7.69a16.42 16.42 0 0 1 -2.93 2.78c-6.47-1.48-12.86-4-19.13-2.24-1.7.48-3.36 1.28-5.12 1.21a12.71 12.71 0 0 1 -3.56-.92 38.12 38.12 0 0 0 -15.75-2c-4 .35-8.22 2.54-12.15 2.14-2.84-.29-10.92-3.56-7.85-7.68a4.85 4.85 0 0 1 3.73-1.69 27.16 27.16 0 0 1 4.21.41c4.36.51 8.74-.4 13.11-.63 8.7-.45 17.33 1.77 26 1.81a82.1 82.1 0 0 0 13.54-1.28c1.64-.25 4.9-1.11 6.7-.32z" fill="#231f20"/><path d="m225.49 189.62h-.11c-1.31-.3-2.61-.64-3.91-1-5.19-1.36-10.1-2.65-15-1.26-.45.13-.9.28-1.35.43a10.9 10.9 0 0 1 -3.93.8 11.05 11.05 0 0 1 -3.25-.79l-.45-.16a37.91 37.91 0 0 0 -15.49-1.95 29 29 0 0 0 -4.93 1.05 20.68 20.68 0 0 1 -7.31 1.09c-2.31-.24-7.47-2.22-8.7-5a3.33 3.33 0 0 1 .5-3.46 5.31 5.31 0 0 1 4.11-1.89 17.72 17.72 0 0 1 3.11.25l1.18.17a40.59 40.59 0 0 0 8.74-.27c1.4-.14 2.85-.29 4.29-.36a85.25 85.25 0 0 1 14.4.87 105.12 105.12 0 0 0 11.66.93 86.38 86.38 0 0 0 13.46-1.27l1-.18c1.84-.36 4.35-.85 6-.13a2.52 2.52 0 0 1 1.12.9c1.68 2.48-.48 6.73-1.73 8.28a16.73 16.73 0 0 1 -3 2.87.51.51 0 0 1 -.41.08zm-14.56-3.85a43.35 43.35 0 0 1 10.79 1.89c1.22.32 2.43.64 3.65.92a15.54 15.54 0 0 0 2.63-2.58c1.19-1.49 3-5.21 1.68-7.1a1.52 1.52 0 0 0 -.69-.54c-1.34-.59-3.78-.12-5.39.19-.37.07-.7.14-1 .18a86.61 86.61 0 0 1 -13.6 1.32 104 104 0 0 1 -11.76-.94 85.66 85.66 0 0 0 -14.24-.87c-1.41.08-2.85.22-4.24.37a41.85 41.85 0 0 1 -9 .26l-1.21-.16a15.36 15.36 0 0 0 -2.92-.25 4.3 4.3 0 0 0 -3.35 1.49 2.31 2.31 0 0 0 -.38 2.46c1 2.35 5.69 4.2 7.88 4.42a20.09 20.09 0 0 0 6.94-1.06 30.14 30.14 0 0 1 5.12-1.08 38.88 38.88 0 0 1 16 2l.45.16a10.35 10.35 0 0 0 3 .73 10 10 0 0 0 3.57-.75c.47-.16.93-.31 1.39-.44a17.29 17.29 0 0 1 4.68-.62z" fill="#231f20"/><path d="m87.71 185.27s10.7-3 17.46-2.81c0 0 13.7 2.42 24.78 0 0 0 13.91.41 23.09 0s8.07 1.88 20.64 1.41 15-3.09 17.84-2.53a62.1 62.1 0 0 0 17.47-.08s6.94 4.81 13.69 2 12.95 3.81 19.33 0c0 0 16.33 1.67 24.21-2 0 0 10.89 1.61 15.58 0 0 0 8.83 3 13.52 2s8.45 2.2 12 .89c2.77-1 5.56.45 8.4-.19.86-.19 1.71-.48 2.58-.63a8.29 8.29 0 0 1 4.13.37c-.66-1.23-2.23-1.59-3.61-1.81-3.58-.58-7-.39-10.57-.5-1.74 0-3.48-.13-5.21-.35-1.1-.14-2.56-.83-3.6-.83-2.82-1.51-14.08-4.32-19.52-3.57 0 0-14.83-3.57-21.78-1.5a36.09 36.09 0 0 1 -13.14 1.31s-11.63-3.19-18.77-2.81-13.51 2.62-15 1.87-7.32-1.5-12.39-.94-8.07 1.13-8.07 1.13-10.14-3.06-14.46-2.1-5.82 2.85-8.07 2.29-8.63-2.51-12.2-2.47-8.66 4.35-11.18 4.16-7.78-3.38-13.78-1.5-11.45 3.53-16 3.26-11.26-1-13.51 0-13.86 5.93-13.86 5.93z" fill="#68e1fd"/><path d="m87.71 185.77a.51.51 0 0 1 -.47-.33.51.51 0 0 1 .28-.63c.12-.05 11.66-4.89 13.87-5.92 1.94-.9 6.75-.55 11-.24 1 .08 1.91.14 2.77.19 4.53.27 10.25-1.51 15.78-3.24 4.43-1.38 8.39-.13 11.28.79a14.28 14.28 0 0 0 2.68.69c1.06.1 2.8-.83 4.64-1.79 2.22-1.16 4.51-2.36 6.51-2.37h.09c3 0 7.81 1.29 10.68 2.07l1.55.41c1.11.28 2-.13 3.4-.74a22.59 22.59 0 0 1 4.44-1.54c4.19-.94 13.39 1.71 14.59 2.07.62-.11 3.52-.62 8-1.11 5.26-.59 11.11.2 12.67 1 .61.3 2.82-.13 5.15-.58a68.55 68.55 0 0 1 9.62-1.35c7.13-.38 18.45 2.7 18.93 2.83a36.07 36.07 0 0 0 12.83-1.32c6.79-2 20.57 1.14 21.94 1.47 5.43-.7 16.46 2 19.63 3.58a8.41 8.41 0 0 1 2 .45 10.54 10.54 0 0 0 1.51.39c1.75.22 3.52.29 5.17.34 1 0 2 0 3 .05a47.93 47.93 0 0 1 7.64.46c1.63.26 3.24.69 4 2.07a.49.49 0 0 1 -.07.56.5.5 0 0 1 -.54.14 7.87 7.87 0 0 0 -3.88-.35c-.5.09-1 .22-1.5.36-.35.09-.7.19-1.05.27a12 12 0 0 1 -4.06 0 9 9 0 0 0 -4.28.17c-1.93.71-3.86.21-5.9-.32a13.11 13.11 0 0 0 -6.18-.55c-4.47.95-12.36-1.55-13.62-2-4.57 1.46-14.14.18-15.5 0-7.63 3.46-22.36 2.18-24.18 2-3.46 2-6.89 1.09-10.21.23-3.07-.8-6-1.56-9-.29-6.42 2.67-12.86-1.2-14-1.94a63 63 0 0 1 -17.46 0 8.3 8.3 0 0 0 -3.67.51 55.69 55.69 0 0 1 -14.05 2 46.37 46.37 0 0 1 -12.22-.79 30.51 30.51 0 0 0 -8.42-.62c-8.78.39-22 0-23.06 0-11 2.4-24.78 0-24.92 0-6.52-.18-17.12 2.77-17.23 2.8a.34.34 0 0 1 -.18.12zm138.65-3.72a23.26 23.26 0 0 1 5.81 1c3.3.86 6.43 1.68 9.58-.21a.48.48 0 0 1 .31-.06c.16 0 16.29 1.6 23.95-2a.57.57 0 0 1 .29 0c.1 0 10.82 1.57 15.34 0a.44.44 0 0 1 .32 0c.09 0 8.75 2.95 13.25 2a14 14 0 0 1 6.64.57c2 .5 3.67.94 5.31.34a9.82 9.82 0 0 1 4.74-.23 10.57 10.57 0 0 0 3.72 0c.34-.07.67-.16 1-.26.51-.13 1.05-.28 1.59-.37a8.62 8.62 0 0 1 2.15-.09 10.89 10.89 0 0 0 -1.62-.37 48.07 48.07 0 0 0 -7.48-.44c-1 0-2 0-3-.05-1.68 0-3.47-.12-5.26-.35a11.57 11.57 0 0 1 -1.69-.42 7.34 7.34 0 0 0 -1.85-.41.71.71 0 0 1 -.24-.06c-2.87-1.53-14-4.23-19.22-3.52a.37.37 0 0 1 -.18 0c-.15 0-14.78-3.51-21.52-1.5a36.18 36.18 0 0 1 -13.3 1.38c-.18 0-11.72-3.19-18.68-2.82a70.38 70.38 0 0 0 -9.48 1.34c-2.94.57-4.88.94-5.79.49-1.29-.64-6.86-1.47-12.11-.89-5 .56-8 1.12-8 1.12a.49.49 0 0 1 -.24 0c-.1 0-10.06-3-14.2-2.09a22.21 22.21 0 0 0 -4.25 1.48c-1.46.65-2.62 1.16-4 .8l-1.57-.41c-2.83-.77-7.55-2-10.42-2h-.26c-1.75 0-4 1.2-6 2.26s-3.83 2-5.17 1.9a14.75 14.75 0 0 1 -2.91-.74c-2.77-.88-6.55-2.08-10.69-.79-5.61 1.76-11.42 3.58-16.13 3.29l-2.78-.19c-3.91-.29-8.79-.65-10.49.15-1.2.55-4.95 2.15-8.26 3.55a54.64 54.64 0 0 1 11.62-1.45c.21 0 13.81 2.38 24.65 0h.16c.14 0 14 .4 23 0a31.65 31.65 0 0 1 8.66.64 45.35 45.35 0 0 0 12 .77 54.93 54.93 0 0 0 13.82-2 8.86 8.86 0 0 1 4.12-.53 61.88 61.88 0 0 0 17.31-.08.5.5 0 0 1 .36.08c.07 0 6.8 4.62 13.2 2a9.9 9.9 0 0 1 3.89-.83z" fill="#231f20"/><path d="m256.79 141.85c-.63 0-1.25 0-1.88-.09-1.85-.17-5.17-.86-6.56-3.49a.5.5 0 1 1 .88-.46c1.17 2.21 4.12 2.8 5.78 2.95a19.9 19.9 0 0 0 21-25.34.5.5 0 0 1 .11-.48.49.49 0 0 1 .46-.15 12.13 12.13 0 0 0 14.31-12.54.51.51 0 0 1 .48-.53.48.48 0 0 1 .52.48 13.13 13.13 0 0 1 -14.72 13.69 20.91 20.91 0 0 1 -20.35 26z" fill="#231f20"/><path d="m121.94 84.69a.49.49 0 0 1 -.49-.51c.09-5.87.68-13.41 4.42-19.6s10.44-9.79 16.5-8.94c-.68-3.59 2-7 5-9.17a27.35 27.35 0 0 1 25.26-3.26c2.21.85 3.42 2 3.69 3.43a.5.5 0 0 1 -.4.58.5.5 0 0 1 -.58-.4c-.2-1.07-1.23-2-3.06-2.68a26.35 26.35 0 0 0 -24.33 3.14c-2.74 2-5.54 5.47-4.43 8.82a.5.5 0 0 1 -.57.65c-6.84-1.4-13.21 3.35-16.23 8.35-3.61 6-4.18 13.35-4.27 19.1a.51.51 0 0 1 -.51.49z" fill="#231f20"/><path d="m122 146.54h-.09c-9.17-1.59-18.57-3.72-23.89-10.71-5-6.64-4.83-15.84-4.22-22.18.44-4.63 1.39-9.79 5-13a.5.5 0 1 1 .65.75c-3.38 3-4.27 7.9-4.7 12.34-.59 6.17-.81 15.12 4 21.47 5.11 6.71 13.92 8.71 23.27 10.33a.5.5 0 0 1 -.08 1z" fill="#231f20"/><path d="m262.59 82.43a.49.49 0 0 1 -.45-.54c.54-6.31-5.29-11.25-7.83-13.08-6.46-4.66-13.68-6.8-20.34-6-1.84.22-3 .78-3.44 1.71a.5.5 0 0 1 -.41.27.48.48 0 0 1 -.44-.21c-3.82-5.43-10.94-8.66-18.13-8.28a28.3 28.3 0 0 0 -18.38 8.95.49.49 0 0 1 -.7 0 .5.5 0 0 1 0-.71c5.28-5.5 12.23-8.88 19.05-9.25a22.1 22.1 0 0 1 18.48 8.12 5.68 5.68 0 0 1 3.79-1.6c6.9-.83 14.37 1.38 21 6.19 5.64 4.08 8.64 9.17 8.23 14a.49.49 0 0 1 -.43.43z" fill="#231f20"/><path d="m271.65 267.38a14.21 14.21 0 0 0 -12.94-3.66c1.53-3.62-1.49-7.88-5.24-9.06s-7.81-.15-11.55 1.06-7.58 2.61-11.49 2.15c-8.79-1-15-11.07-23.8-10.82-4.89.14-9.15 3.51-14 4.26-5.72.87-10.38-2.6-15.94-1.64-4.91.84-10.22 2.94-13 7.26a7.23 7.23 0 0 1 -1.71 2.15 4.46 4.46 0 0 1 -3.55.35c-1.59-.37-3.08-1.11-4.69-1.41a4.8 4.8 0 0 0 -4.54 1.15c-.78.88-1 2.14-1.82 3-1.69 1.81-4.66 1-7 .13a9.57 9.57 0 0 0 -7.64.6c-.74.34-5.14 4.49-4.77 4.49z" fill="#68e1fd"/><path d="m271.65 267.88h-143.71a.54.54 0 0 1 -.51-.41c-.19-.87 5-5 5.07-5a10.08 10.08 0 0 1 8-.61c2.53.89 5.05 1.51 6.46 0a5.59 5.59 0 0 0 .86-1.41 6.92 6.92 0 0 1 .95-1.57 5.22 5.22 0 0 1 5-1.31 18.86 18.86 0 0 1 2.65.77 20.72 20.72 0 0 0 2.07.65 4.07 4.07 0 0 0 3.14-.28 5.13 5.13 0 0 0 1.3-1.58l.28-.44c3.16-4.82 9-6.73 13.37-7.48 2.9-.49 5.57.17 8.16.81a19.47 19.47 0 0 0 7.8.83 26.28 26.28 0 0 0 6.19-2 22.27 22.27 0 0 1 7.87-2.22c4.83-.15 8.92 2.71 12.87 5.47 3.43 2.4 7 4.88 11 5.35 3.49.42 7-.73 10.39-1.84l.89-.29c3.9-1.26 8-2.26 11.85-1.06a9.12 9.12 0 0 1 5.35 4.71 6.35 6.35 0 0 1 .48 4.16 14.77 14.77 0 0 1 12.57 3.87.48.48 0 0 1 .13.55.5.5 0 0 1 -.48.33zm-142.69-1h141.33a13.48 13.48 0 0 0 -11.46-2.67.5.5 0 0 1 -.58-.68 5.18 5.18 0 0 0 -.19-4.22 8 8 0 0 0 -4.74-4.17c-3.55-1.12-7.5-.16-11.24 1.05l-.89.29c-3.49 1.14-7.11 2.32-10.82 1.89-4.26-.5-7.92-3.06-11.45-5.53-4-2.79-7.75-5.42-12.27-5.29-2.6.08-5 1.08-7.51 2.15a27.67 27.67 0 0 1 -6.43 2.1 20.38 20.38 0 0 1 -8.2-.85c-2.59-.65-5-1.25-7.74-.79-4.16.72-9.74 2.52-12.7 7l-.27.42a5.89 5.89 0 0 1 -1.58 1.87 4.79 4.79 0 0 1 -3.94.43c-.75-.18-1.47-.43-2.17-.67a17.64 17.64 0 0 0 -2.5-.74 4.27 4.27 0 0 0 -4.08 1 5.94 5.94 0 0 0 -.8 1.35 6.5 6.5 0 0 1 -1 1.65c-1.8 1.93-4.68 1.27-7.52.26a9 9 0 0 0 -7.26.58 34.68 34.68 0 0 0 -3.95 3.57z" fill="#231f20"/><path d="m171.87 263.34a.52.52 0 0 1 -.29-.09.5.5 0 0 1 -.11-.7 16.37 16.37 0 0 1 4.68-4.78c1.74-1 4.39-1.42 6.31-.09a18.18 18.18 0 0 1 21.44-3.27.5.5 0 1 1 -.49.87 17.12 17.12 0 0 0 -20.52 3.41.51.51 0 0 1 -.71 0c-1.56-1.36-4-1-5.53-.1a15.64 15.64 0 0 0 -4.37 4.51.51.51 0 0 1 -.41.24z" fill="#231f20"/><path d="m201.55 148.76c1.62 3.31 5.53 4.77 9.16 5.44a43.18 43.18 0 0 0 30.46-5.75" fill="#68e1fd"/><path d="m218.41 155.41a42.55 42.55 0 0 1 -7.8-.72c-4.9-.91-8.1-2.84-9.51-5.71a.5.5 0 1 1 .9-.44c1.26 2.58 4.22 4.32 8.8 5.17a42.71 42.71 0 0 0 30.11-5.71.49.49 0 0 1 .69.16.51.51 0 0 1 -.16.69 43.84 43.84 0 0 1 -23.03 6.56z" fill="#231f20"/><path d="m153.81 229.83c0-.85-11-7.6-12.1-6.48s-3.38 3.94-2.26 4.79 5.61 6.47 7 5.91 7.36-4.22 7.36-4.22z" fill="#fff"/><path d="m146.26 234.59c-1.24 0-3.08-1.86-5.48-4.41a20.6 20.6 0 0 0 -1.63-1.64 1.29 1.29 0 0 1 -.5-1c-.12-1.74 2.59-4.47 2.7-4.58.45-.45 1.33-.35 3 .33 2.65 1.09 10 5.31 10 6.5a.5.5 0 0 1 -.23.42c-.25.15-6 3.69-7.42 4.27a1 1 0 0 1 -.44.11zm-4.14-10.87h-.1c-1.17 1.17-2.43 3-2.37 3.77a.28.28 0 0 0 .1.23 18.22 18.22 0 0 1 1.76 1.75c1 1.08 4.1 4.37 4.78 4.1 1.15-.46 5.43-3.06 6.82-3.92-1.7-1.8-9.7-5.93-10.99-5.93z" fill="#231f20"/><path d="m280.5 244.56h-10.42s-1 5.12 0 5.12h10.42z" fill="#fff"/><path d="m280.5 250.18h-10.42a.81.81 0 0 1 -.62-.3c-.7-.86-.14-4.08.13-5.42a.51.51 0 0 1 .49-.4h10.42a.5.5 0 0 1 .5.5v5.12a.5.5 0 0 1 -.5.5zm-10.3-1h9.8v-4.12h-9.5a12.5 12.5 0 0 0 -.3 4.12z" fill="#231f20"/><path d="m242.4 228.66s-6.33 3.69-6.36 5 1.86 2.34 1.86 2.34l-1.13 3.15 2.45 4s9.45-7.76 10.16-9.42-6.98-5.07-6.98-5.07z" fill="#fff"/><path d="m239.22 243.61h-.08a.46.46 0 0 1 -.34-.23l-2.46-4a.5.5 0 0 1 0-.43l1-2.76a3.3 3.3 0 0 1 -1.74-2.52c0-1.47 4.63-4.3 6.61-5.45a.45.45 0 0 1 .45 0c2.45 1.08 8.06 3.78 7.24 5.69-.73 1.72-9.32 8.81-10.3 9.61a.52.52 0 0 1 -.38.09zm-1.9-4.54 2 3.29c3.63-3 9.11-7.78 9.58-8.86.23-.55-2.54-2.52-6.5-4.28-3.15 1.86-5.82 3.89-5.89 4.49 0 .83 1.17 1.61 1.58 1.82a.51.51 0 0 1 .25.62z" fill="#231f20"/><path d="m146.48 143.81c.33 2.76 2.84 4.67 5.2 6.14s5.19 3 8.13 3.28c4.5.37 8.73-2.22 12.05-5.28a7.94 7.94 0 0 0 7.87 2.26 13.65 13.65 0 0 0 7-4.74" fill="#68e1fd"/><path d="m160.69 153.77c-.31 0-.62 0-.92 0-3.16-.26-6-1.87-8.35-3.36s-5.08-3.53-5.44-6.5a.5.5 0 0 1 1-.12c.3 2.55 2.68 4.35 5 5.78s5 3 7.9 3.21c3.7.3 7.63-1.43 11.67-5.16a.44.44 0 0 1 .37-.13.53.53 0 0 1 .36.17 7.4 7.4 0 0 0 7.36 2.1 13.4 13.4 0 0 0 6.77-4.57.5.5 0 0 1 .7-.07.51.51 0 0 1 .06.71 14.1 14.1 0 0 1 -7.29 4.91 8.57 8.57 0 0 1 -8-2c-3.88 3.31-7.6 5.03-11.19 5.03z" fill="#231f20"/><path d="m104.43 77a14.15 14.15 0 0 0 -8.27 9c-.74 2.55-.66 5.54 1 7.58" fill="#68e1fd"/><path d="m97.21 94.1a.5.5 0 0 1 -.39-.18c-1.62-1.94-2-4.94-1.14-8a14.71 14.71 0 0 1 8.57-9.36.51.51 0 0 1 .37.94 13.64 13.64 0 0 0 -8 8.71c-.81 2.77-.46 5.43 1 7.11a.49.49 0 0 1 -.06.7.51.51 0 0 1 -.35.08z" fill="#231f20"/><path d="m169.29 235.88s-4.22.19-4.22 1.88v5.35h6.49z" fill="#fff"/><path d="m171.56 243.61h-6.49a.5.5 0 0 1 -.5-.5v-5.35c0-2.06 3.91-2.34 4.7-2.37a.48.48 0 0 1 .5.35l2.23 7.26a.52.52 0 0 1 -.07.45.48.48 0 0 1 -.37.16zm-6-1h5.31l-1.95-6.2c-1.48.12-3.36.59-3.36 1.35z" fill="#231f20"/><path d="m238.86 264.42a.49.49 0 0 1 -.42-.23 9.64 9.64 0 0 0 -2.74-2.84c-3.77-2.56-8.69-2.2-13.84-1.56a3.59 3.59 0 0 0 -2.62 1.06.5.5 0 0 1 -.83-.57 4.45 4.45 0 0 1 3.33-1.48c5.34-.67 10.47-1 14.52 1.72a10.67 10.67 0 0 1 3 3.14.51.51 0 0 1 -.16.69.52.52 0 0 1 -.24.07z" fill="#231f20"/><path d="m127.9 256.91h-.3a13.13 13.13 0 0 1 -3.46-.64 3.17 3.17 0 0 1 -1.88-1.48 1.42 1.42 0 0 1 0-1.19 2.4 2.4 0 0 1 1.09-1.07c.33-.2.61-.37.68-.61a1.28 1.28 0 0 0 0-.44 2.94 2.94 0 0 1 0-.66 2.42 2.42 0 0 1 1.32-1.52 2.17 2.17 0 0 0 .88-.76 2 2 0 0 0 .15-.43 1.52 1.52 0 0 1 .91-1.22c1.22-.38 5.9 2.46 7.37 4.48.76 1 .59 1.73.32 2.13-.6.83-1.61.43-2.42.12-.54-.22-1.15-.46-1.46-.3s-.54.71-.72 1.32a3 3 0 0 1 -1.34 2.06 2.6 2.6 0 0 1 -1.14.21zm-.34-9.07c-.1 0-.17.3-.24.53a3.42 3.42 0 0 1 -.21.59 3.11 3.11 0 0 1 -1.24 1.18c-.51.32-.82.53-.87.85a1.77 1.77 0 0 0 0 .4 2.15 2.15 0 0 1 0 .79 2.21 2.21 0 0 1 -1.12 1.2 1.53 1.53 0 0 0 -.69.59.51.51 0 0 0 0 .4 2.3 2.3 0 0 0 1.29.94 12 12 0 0 0 3.2.59 1.85 1.85 0 0 0 .92-.11c.47-.23.63-.79.83-1.45a2.79 2.79 0 0 1 1.24-1.93 3 3 0 0 1 2.27.26c.62.25 1.1.42 1.23.24s0-.57-.18-.77c-1.21-1.9-5.62-4.43-6.43-4.3z" fill="#231f20"/><path d="m268.63 230.72s-4.17.57-4.6 1.27-2.11 3.89-2.11 3.89 2.68.8 4.23 0a3.65 3.65 0 0 0 1.83-2.4 1.68 1.68 0 0 0 1.64 1.47c1.45 0 3.71-.29 3.71-.85a35.93 35.93 0 0 0 -1.68-4.36z" fill="#fff"/><path d="m264.35 236.74a9.56 9.56 0 0 1 -2.57-.38.49.49 0 0 1 -.3-.71c.07-.13 1.7-3.21 2.12-3.92s3.26-1.27 4.91-1.5l3-1a.5.5 0 0 1 .61.28 27.63 27.63 0 0 1 1.73 4.56c0 1.25-3.22 1.35-4.21 1.35a2 2 0 0 1 -1.6-.71 4 4 0 0 1 -1.65 1.59 4.41 4.41 0 0 1 -2.04.44zm-1.68-1.19a5.62 5.62 0 0 0 3.25-.11 3.11 3.11 0 0 0 1.56-2.05.55.55 0 0 1 .52-.39.5.5 0 0 1 .48.43 1.17 1.17 0 0 0 1.15 1 9.09 9.09 0 0 0 3.18-.46 37.08 37.08 0 0 0 -1.43-3.64l-2.59.85h-.09a13.72 13.72 0 0 0 -4.24 1c-.3.58-1.29 2.42-1.79 3.37z" fill="#231f20"/><g fill="#d1d3d4"><path d="m168.83 224.22a1 1 0 0 0 -1.23-.7 4.56 4.56 0 0 1 -.78.22 2.41 2.41 0 0 0 -3.37-.18 1 1 0 0 0 .2 1.57 5.65 5.65 0 0 0 2.2.64 1 1 0 0 0 .75.1 1.39 1.39 0 0 0 .21-.11 5.51 5.51 0 0 0 1.32-.31 1.1 1.1 0 0 0 .6-.46 1.09 1.09 0 0 0 .1-.77z"/><path d="m150.57 246.9-.2-.48a1.55 1.55 0 0 0 -.52-.56 1 1 0 0 0 -.4-.24 1 1 0 0 0 -.44-.25 1 1 0 0 0 -.5-.14 1.45 1.45 0 0 0 -.8 0 1.47 1.47 0 0 0 -.43.15c-.2 0-.4-.06-.59-.07a4.74 4.74 0 0 0 -1.91.15 1.84 1.84 0 0 0 -1.08.87 2.1 2.1 0 0 0 0 1.65c0 .1.06.19.08.29v.1.3s0 .08 0 .11a2.29 2.29 0 0 1 -.07.28v.11a.48.48 0 0 1 0 .11 1.19 1.19 0 0 1 -.08.16c0 .06-.23.32-.08.13a1 1 0 0 0 -.2 1.09 1 1 0 0 0 .91.61 16.79 16.79 0 0 0 4.17-.65 1 1 0 0 0 .71-.85 2.8 2.8 0 0 0 .43-.19 2.56 2.56 0 0 0 .88-.91 2.28 2.28 0 0 0 .3-1.11 1.93 1.93 0 0 0 -.18-.66z"/><path d="m239.93 248.94a1 1 0 0 0 -1-1h-.09a2.41 2.41 0 0 0 -.33-.15 1.28 1.28 0 0 0 -.27-.05 1.42 1.42 0 0 0 -.29 0 2.2 2.2 0 0 0 -.63.12 5.46 5.46 0 0 0 -.6.27 1 1 0 0 0 -.21 1.57 2.31 2.31 0 0 0 .8.47 0 0 0 0 0 0 0 1.31 1.31 0 0 0 .24.17 1 1 0 0 0 .43.15h.17a1.45 1.45 0 0 0 .29 0 2 2 0 0 0 .31-.13 1.42 1.42 0 0 0 .44-.44 2.1 2.1 0 0 0 .41-.31 1.05 1.05 0 0 0 .33-.67z"/><path d="m257.11 248.36-.63-1.39a.77.77 0 0 0 -.26-.28.84.84 0 0 0 -.34-.17.68.68 0 0 0 -.4 0 .65.65 0 0 0 -.37.12 1 1 0 0 0 -.46.59v.27a1 1 0 0 0 .13.5l.63 1.39a.78.78 0 0 0 .26.28.75.75 0 0 0 .34.18.78.78 0 0 0 .4 0 .81.81 0 0 0 .37-.12 1 1 0 0 0 .46-.6v-.27a1 1 0 0 0 -.13-.5z"/><path d="m132.63 213.14a2.69 2.69 0 0 0 -.39-.5 1.76 1.76 0 0 0 -.73-.47 1.55 1.55 0 0 0 -.77-.17 2 2 0 0 0 -1 .27l-.12.07-.25.14-.46.27-.32.18-.23.1-.21.12a4.44 4.44 0 0 0 -.59.46 1.43 1.43 0 0 0 -.42.64 1.58 1.58 0 0 0 -.17.77c0 .18.05.36.07.53a1.45 1.45 0 0 0 .36.68 1 1 0 0 0 .36.36 1.45 1.45 0 0 0 .68.36l.53.07a2 2 0 0 0 1-.27l.17-.1a1.91 1.91 0 0 0 .58.06 1.28 1.28 0 0 0 .51-.06 1.51 1.51 0 0 0 .64-.33 2.19 2.19 0 0 0 .7-.72.21.21 0 0 0 0-.06 4.71 4.71 0 0 0 .21-.52 2.84 2.84 0 0 0 .1-.65 2.47 2.47 0 0 0 -.25-1.23z"/><path d="m124.38 234.13a1.91 1.91 0 0 0 -.51-.88l-.4-.31a2.13 2.13 0 0 0 -1-.28h-.38a1.48 1.48 0 0 0 -.77.18 1.41 1.41 0 0 0 -.64.41 1.49 1.49 0 0 0 -.42.64 1.58 1.58 0 0 0 -.17.77c0 .18 0 .36.07.54a2.08 2.08 0 0 0 .52.88l.4.31a2 2 0 0 0 1 .27h.38a1.47 1.47 0 0 0 .77-.17 1.56 1.56 0 0 0 .64-.41 2.35 2.35 0 0 0 .59-1.42z"/><path d="m279.73 259.61a1.77 1.77 0 0 0 -1.06-.44h-.13a1.32 1.32 0 0 0 -.68-1l-2.14-1.11a1.52 1.52 0 0 0 -2.26 1.29.08.08 0 0 0 0 0 1.4 1.4 0 0 0 -.1.16l-.16.1a1.51 1.51 0 0 0 -1.5 1.5 1.53 1.53 0 0 0 1.5 1.5c1.85.13 3.72.24 5.57.44a1.46 1.46 0 0 0 1.06-.44 1.5 1.5 0 0 0 .44-1.06 1.52 1.52 0 0 0 -.54-.94z"/><path d="m286.08 235.58a1 1 0 0 0 -.17-.55 1.13 1.13 0 0 0 -.39-.42 1 1 0 0 0 -.51-.27l-.4-.06a1.48 1.48 0 0 0 -.76.21l-.28.22a1.21 1.21 0 0 0 -.44.15 1.13 1.13 0 0 0 -.42.39 1.26 1.26 0 0 0 -.27.51l-.05.4a1.47 1.47 0 0 0 .2.76l.24.3a1.47 1.47 0 0 0 .66.39h.06l.45.06h.11a2.31 2.31 0 0 0 .51-.07 3.71 3.71 0 0 0 .46-.19 2.27 2.27 0 0 0 .25-.18 1.1 1.1 0 0 0 .23-.2 2.88 2.88 0 0 0 .27-.34 2.76 2.76 0 0 0 .2-.47 1.11 1.11 0 0 0 .05-.64z"/><path d="m228.09 235.16a.06.06 0 0 0 0 0 2.72 2.72 0 0 0 -.11-.25l-.16-.21a1.79 1.79 0 0 0 -.28-.2l-.27-.12h-.09-.31-.07-.29-.08a1.48 1.48 0 0 0 -.32.14 1.73 1.73 0 0 0 -.21.17l-.08.11-.09.11a1.36 1.36 0 0 0 -.14.33.78.78 0 0 0 0 .4.7.7 0 0 0 .11.37.78.78 0 0 0 .26.28.75.75 0 0 0 .34.18h.27a1 1 0 0 0 .34-.07.76.76 0 0 0 .2.06.78.78 0 0 0 .4 0l.23-.1a1 1 0 0 0 .36-.36l.1-.24a1 1 0 0 0 -.11-.6z"/><path d="m254.23 223.15a1 1 0 0 0 0 2 1 1 0 0 0 0-2z"/></g><path d="m138.25 118.09a17.88 17.88 0 0 1 21.25-18.46 37.09 37.09 0 0 1 23.5-16.63 18.24 18.24 0 0 1 10 .22c3.17 1.15 5.9 3.92 6.24 7.28" fill="#68e1fd"/><path d="m138.25 118.59a.51.51 0 0 1 -.5-.47 18.37 18.37 0 0 1 21.51-19 37.77 37.77 0 0 1 23.67-16.54c4.07-.86 7.42-.79 10.24.24 3.6 1.31 6.24 4.4 6.56 7.7a.49.49 0 0 1 -.44.54.5.5 0 0 1 -.55-.45c-.29-2.92-2.66-5.67-5.91-6.85-2.64-1-5.82-1-9.7-.2a36.74 36.74 0 0 0 -23.2 16.38.51.51 0 0 1 -.52.22 17.38 17.38 0 0 0 -20.66 17.95.49.49 0 0 1 -.47.52z" fill="#231f20"/></svg>